<?xml version="1.0" standalone="no"?>
<!DOCTYPE svg PUBLIC "-//W3C//DTD SVG 20010904//EN"
 "http://www.w3.org/TR/2001/REC-SVG-20010904/DTD/svg10.dtd">
<svg version="1.0" xmlns="http://www.w3.org/2000/svg"
 width="791.000000pt" height="308.000000pt" viewBox="0 0 791.000000 308.000000"
 preserveAspectRatio="xMidYMid meet">

<g transform="translate(0.000000,308.000000) scale(0.100000,-0.100000)" stroke="none">
<path d="M0 1540 l0 -1540 3955 0 3955 0 0 1540 0 1540 -3955 0 -3955 0 0
-1540z m7668 3 l2 -1303 -3715 0 -3715 0 0 1305 0 1305 3713 -2 3712 -3 3
-1302z"/>
<path d="M540 1540 l0 -1000 200 0 200 0 2 757 3 757 110 -139 c60 -77 240
-304 399 -505 159 -201 380 -479 489 -618 l200 -252 199 0 198 0 0 1000 0
1000 -200 0 -200 0 -2 -754 -3 -755 -147 187 c-82 103 -349 441 -596 752
l-447 565 -203 3 -202 2 0 -1000z"/>
<path d="M2840 1540 l0 -1000 200 0 200 0 2 759 3 759 515 -650 c283 -357 553
-699 600 -758 l85 -109 198 -1 197 0 0 1000 0 1000 -195 0 -195 0 0 -750 c0
-412 -4 -750 -8 -750 -5 0 -58 62 -117 137 -316 399 -465 587 -530 668 -84
106 -262 331 -430 543 l-120 152 -202 0 -203 0 0 -1000z"/>
<path d="M5084 2391 l149 -149 107 106 108 107 -41 43 -41 42 -215 0 -216 0
149 -149z"/>
<path d="M5975 2529 c-395 -79 -692 -354 -797 -739 -20 -74 -23 -107 -22 -255
0 -156 2 -178 28 -260 109 -359 367 -611 719 -700 408 -103 837 59 1069 403
232 343 233 774 3 1127 -21 33 -80 101 -130 150 -130 128 -270 208 -450 257
-82 23 -340 33 -420 17z m325 -404 c309 -82 501 -395 435 -710 -46 -221 -239
-414 -460 -460 -274 -57 -549 78 -670 330 -41 87 -55 152 -55 262 0 270 172
497 435 574 76 22 239 24 315 4z"/>
<path d="M5890 1920 c-51 -34 -109 -96 -136 -146 l-19 -34 100 -100 100 -100
-100 -100 c-98 -98 -99 -99 -84 -126 23 -44 101 -126 149 -156 l44 -28 101
100 100 100 99 -99 99 -100 39 20 c44 23 135 111 161 158 l19 32 -101 102
-101 103 100 99 c98 98 99 99 84 126 -22 43 -118 142 -158 163 l-37 20 -99
-99 -100 -100 -98 98 c-53 53 -102 97 -107 97 -6 0 -30 -13 -55 -30z"/>
<path d="M6892 2497 l-42 -43 105 -105 104 -105 148 148 148 148 -211 0 -210
0 -42 -43z"/>
<path d="M5085 690 l-150 -150 210 0 209 0 46 45 46 46 -104 104 c-58 58 -106
105 -106 105 -1 0 -69 -67 -151 -150z"/>
<path d="M6951 733 l-104 -105 44 -44 43 -44 215 0 216 0 -150 150 c-82 83
-152 150 -155 149 -3 0 -52 -48 -109 -106z"/>
</g>
</svg>
